<svg width="185" height="155" viewBox="0 0 185 155" fill="none" xmlns="http://www.w3.org/2000/svg">
<g clip-path="url(#clip0_2116_135)">
<path d="M83.3009 20.2294V25.7758C82.6195 25.7758 81.984 25.4076 81.6395 24.8169C81.5246 24.6251 81.4175 24.4256 81.2873 24.2339C73.7917 11.6375 60.1482 3.83568 45.5016 3.83568C22.5249 3.83568 3.82817 22.5692 3.82817 45.5909C3.82817 89.9161 68.0036 140.064 81.8079 150.336C82.4051 150.781 82.9028 151.149 83.3009 151.44V154.716C83.0023 154.908 82.6501 155 82.2979 155C81.9457 155 81.5706 154.9 81.249 154.685C81.1801 154.639 81.1112 154.593 81.0499 154.54C76.4332 151.18 58.7317 137.939 41.2447 120.172C13.8809 92.3633 0 67.2702 0 45.5909C0 20.4519 20.4118 0 45.5016 0C60.6841 0 74.8943 7.67904 83.3009 20.2294Z" fill="#00A03B"/>
<path d="M95.6047 134.164C96.0411 134.809 96.0488 135.653 95.62 136.305L83.8982 154.141C83.7374 154.386 83.5306 154.578 83.301 154.716C83.0024 154.908 82.6502 155 82.298 155C81.9458 155 81.5706 154.9 81.2491 154.685C81.1802 154.639 81.1112 154.593 81.05 154.54C80.338 153.926 80.1695 152.852 80.6978 152.031L81.808 150.336L91.7153 135.269L70.9972 104.791C70.5608 104.139 70.5608 103.279 70.9972 102.627L91.7076 72.172L70.9972 41.7167C70.5608 41.0646 70.5608 40.2131 70.9972 39.561L81.2873 24.2336L82.0453 23.106C82.3439 22.6533 82.8033 22.3772 83.301 22.2928C83.7757 22.2084 84.2733 22.2928 84.7021 22.5843C85.5825 23.175 85.8122 24.3717 85.2227 25.2463L74.8943 40.6274L95.6047 71.0904C96.0488 71.7424 96.0488 72.6016 95.6047 73.2537L74.902 103.709L95.6047 134.164Z" fill="#00A03B"/>
<path d="M83.3006 20.2295C83.3006 20.2295 84.6098 22.086 85.1993 23.0756C85.7889 24.0652 83.8518 24.8093 83.8518 24.8093L82.0449 23.1139L83.3006 20.2372V20.2295Z" fill="#00A03B"/>
<path d="M139.499 0C124.316 0 110.106 7.67904 101.699 20.2294C101.699 20.2294 100.696 21.6486 100.053 22.6689L89.3879 39.5612C88.9514 40.2133 88.9514 41.0648 89.3879 41.7169L110.098 72.1722L89.3879 102.628C88.9514 103.28 88.9514 104.139 89.3879 104.791L110.106 135.269L100.199 150.336L99.0884 152.031C98.5601 152.852 98.7286 153.926 99.4406 154.54C99.5019 154.593 99.5708 154.639 99.6397 154.685C99.9613 154.9 100.329 155 100.689 155H100.758C101.117 155 101.485 154.9 101.806 154.685C101.875 154.639 101.944 154.593 102.005 154.54C106.622 151.18 126.268 137.939 143.755 120.172C171.119 92.3633 185 67.2702 185 45.5909C185 20.4519 164.588 0 139.499 0ZM108.337 144.943L114.018 136.305C114.447 135.653 114.439 134.809 114.003 134.165L93.3002 103.709L114.003 73.2539C114.447 72.6018 114.447 71.7426 114.003 71.0906L93.2926 40.6276C93.2926 40.6276 103.59 24.4256 103.721 24.2339C111.216 11.6375 124.86 3.83568 139.506 3.83568C162.483 3.83568 181.18 22.5692 181.18 45.5909C181.18 84.5615 130.074 128.027 108.345 144.943H108.337Z" fill="#00A03B"/>
</g>
<defs>
<clipPath id="clip0_2116_135">
<rect width="185" height="155" fill="white"/>
</clipPath>
</defs>
</svg>
