<svg width="166" height="157" viewBox="0 0 166 157" fill="none" xmlns="http://www.w3.org/2000/svg">
<g clip-path="url(#clip0_2116_140)">
<path d="M3.08218 84.0056C4.44008 85.0753 6.05736 85.6408 7.72804 85.6408C8.08659 85.6408 8.44514 85.6178 8.79606 85.5643C10.8711 85.2663 12.7019 84.1355 13.953 82.378L23.8474 68.3721L32.8722 65.713V82.5767L26.3954 98.9285L13.5716 115.12C12.145 116.923 11.5271 119.177 11.8323 121.454C12.1374 123.739 13.3275 125.748 15.1813 127.109C16.6689 128.201 18.4082 128.736 20.1323 128.736C22.3904 128.736 24.6332 127.827 26.2734 126.054L42.5453 108.51C43.2014 107.761 43.743 106.929 44.155 106.042L52.6075 88.0706L65.4161 94.703L77.4923 111.322C79.079 113.5 81.5813 114.692 84.1369 114.692C85.449 114.692 86.7764 114.379 87.997 113.721C90.0109 112.636 91.4909 110.749 92.0554 108.533C92.6199 106.317 92.2309 103.949 90.9874 102.023L78.1865 82.2711C76.9888 80.315 75.2571 78.7944 73.1821 77.8698L60.8389 72.4753V57.4683L78.2933 52.2571C79.5825 51.9362 80.7421 51.302 81.6957 50.3851L96.297 35.7296C97.7998 34.232 98.5703 32.2835 98.4712 30.2357C98.3643 28.165 97.3802 26.2777 95.6943 24.9023C95.5189 24.7571 95.3358 24.6272 95.1222 24.482C91.7198 22.205 87.0205 22.6558 84.1903 25.5441L73.1897 36.9445L66.0264 39.0917L15.7763 53.9229C15.7229 53.9382 15.6695 53.9535 15.6161 53.9764C14.3726 54.4654 13.3199 55.3288 12.5799 56.4521L1.39624 73.0102C-0.991535 76.5785 -0.243925 81.4076 3.08218 84.0132M4.55451 75.142L15.7534 58.5839C16.0586 58.1254 16.4705 57.774 16.9511 57.5676L67.1173 42.767L74.7536 40.4747C75.0664 40.383 75.3486 40.2073 75.5775 39.9704L86.9137 28.2261C88.4471 26.6597 91.1247 26.4152 92.9785 27.6607C93.0929 27.7371 93.1997 27.8135 93.2913 27.8899C94.1228 28.5623 94.6034 29.4716 94.6568 30.442C94.7026 31.3895 94.3288 32.3064 93.5964 33.04L79.018 47.6802C78.5756 48.1081 77.9958 48.4137 77.355 48.5742C77.3168 48.5818 77.2863 48.5895 77.2558 48.6047L58.3901 54.2362C58.3901 54.2362 58.3367 54.2591 58.3062 54.2667C58.2375 54.2897 58.1688 54.3202 58.1078 54.3508C58.0544 54.3737 58.001 54.4043 57.9552 54.4348C57.9018 54.4654 57.8484 54.5036 57.8027 54.5418C57.7493 54.58 57.7035 54.6182 57.6577 54.6641C57.612 54.7023 57.5738 54.7405 57.5357 54.7863C57.4899 54.8322 57.4518 54.8857 57.4136 54.9391C57.3831 54.985 57.3449 55.0308 57.3144 55.0843C57.2839 55.1378 57.2534 55.1989 57.2229 55.2524C57.2 55.3059 57.1771 55.3518 57.1542 55.4129C57.1313 55.474 57.1085 55.5428 57.0932 55.6116C57.0779 55.665 57.0703 55.7109 57.0627 55.7644C57.0474 55.8408 57.0398 55.9172 57.0398 55.9936C57.0398 56.0242 57.0322 56.0471 57.0322 56.0777V73.759C57.0322 74.5154 57.4823 75.2031 58.1765 75.5088L71.6563 81.3923C73.0143 81.996 74.1509 82.997 74.9748 84.3341L87.7986 104.124C88.4699 105.164 88.6759 106.401 88.3708 107.601C88.0656 108.801 87.2951 109.786 86.2042 110.375C84.2894 111.406 81.8711 110.856 80.5895 109.091L68.2463 92.1051C68.0709 91.8682 67.842 91.6695 67.5826 91.532L54.2477 84.6245L54.2782 84.5557C54.7283 83.6006 54.3164 82.4621 53.3628 82.0113C52.4092 81.5604 51.2725 81.9731 50.8224 82.9205L50.0977 84.464C50.0748 84.5099 50.0443 84.5404 50.0138 84.5863C49.968 84.6856 49.9299 84.785 49.8994 84.8767L40.7068 104.422C40.4474 104.988 40.0965 105.515 39.7151 105.951L23.4736 123.449C21.8945 125.145 19.2931 125.397 17.4241 124.022C16.4171 123.28 15.7687 122.188 15.6008 120.942C15.433 119.697 15.7687 118.474 16.5468 117.489L29.5461 101.076C29.6605 100.93 29.7597 100.77 29.8207 100.594L36.5339 83.6464C36.6255 83.4249 36.6712 83.1803 36.6712 82.9435V64.5897L38.0978 64.1695C39.1048 63.8715 39.6846 62.8094 39.387 61.8008C39.0895 60.7922 38.0291 60.2114 37.0222 60.5094L22.1234 64.903C21.7114 65.0253 21.3529 65.2851 21.1087 65.6289L10.8329 80.1698C10.1997 81.0638 9.27666 81.6445 8.23916 81.7897C7.23981 81.9349 6.24045 81.6598 5.41655 81.0103C3.67722 79.6502 3.28815 77.0217 4.53926 75.1496" fill="#00A03B"/>
<path d="M42.6899 42.8432C50.7 42.8432 57.2225 36.3102 57.2225 28.2871C57.2225 20.264 50.7 13.731 42.6899 13.731C34.6797 13.731 28.1572 20.264 28.1572 28.2871C28.1572 36.3102 34.6797 42.8432 42.6899 42.8432ZM42.6899 17.5515C48.6021 17.5515 53.4081 22.3653 53.4081 28.2871C53.4081 34.2089 48.6021 39.0227 42.6899 39.0227C36.7776 39.0227 31.9716 34.2089 31.9716 28.2871C31.9716 22.3653 36.7776 17.5515 42.6899 17.5515Z" fill="#00A03B"/>
<path d="M164.093 0H110.028C108.976 0 108.121 0.855794 108.121 1.91025V122.577H55.964C54.9112 122.577 54.0568 123.433 54.0568 124.487V137.875H1.90717C0.854412 137.875 0 138.73 0 139.785V155.082C0 156.144 0.854412 157 1.90717 157H164.093C165.146 157 166 156.144 166 155.09V1.91025C166 0.855794 165.146 0 164.093 0ZM3.81434 141.695H54.0644V153.172H3.81434V141.695ZM57.8788 139.785V126.398H108.129V153.179H57.8788V139.792V139.785ZM162.186 153.179H111.936V3.82051H162.186V153.179Z" fill="#00A03B"/>
</g>
<defs>
<clipPath id="clip0_2116_140">
<rect width="166" height="157" fill="white"/>
</clipPath>
</defs>
</svg>
