<svg width="165" height="162" viewBox="0 0 165 162" fill="none" xmlns="http://www.w3.org/2000/svg">
<path d="M105.813 65.8652H89.894C88.8479 65.8652 87.999 65.0362 87.999 64.0148V42.8912C87.999 37.5844 92.4182 33.2694 97.8533 33.2694C105.29 33.2694 107.927 29.4946 107.927 26.2602C107.927 22.3967 104.706 19.2511 100.749 19.2511C97.9746 19.2511 96.216 20.7314 94.806 21.9156C94.4194 22.2412 94.0556 22.5447 93.6993 22.8038C92.9261 23.3515 91.8649 23.2552 91.2054 22.5743L80.2292 11.2131C79.8805 10.8505 79.691 10.362 79.7137 9.86608C79.7365 9.37019 79.9639 8.8965 80.3429 8.56343C85.3156 4.23361 90.9856 0 100.749 0C115.576 0 127.644 11.7757 127.644 26.2528C127.644 37.9026 119.828 47.6355 107.715 51.1438V64.0074C107.715 65.0288 106.866 65.8578 105.82 65.8578L105.813 65.8652ZM91.7815 62.1645H103.91V49.7597C103.91 48.9307 104.471 48.2054 105.29 47.9834L106.343 47.6947C116.978 44.7341 123.846 36.3187 123.846 26.2676C123.846 13.8332 113.484 3.71551 100.741 3.71551C93.1914 3.71551 88.5296 6.60206 84.3301 10.0881L92.7366 18.7848C94.3512 17.4451 96.8982 15.5652 100.741 15.5652C106.79 15.5652 111.71 20.3687 111.71 26.275C111.71 33.632 104.524 36.9849 97.8457 36.9849C94.5028 36.9849 91.7815 39.642 91.7815 42.906V62.1793V62.1645Z" fill="#00A03B"/>
<path d="M97.8532 91.2299C91.698 91.2299 86.6875 86.3375 86.6875 80.3276C86.6875 74.3176 91.698 69.4253 97.8532 69.4253C104.008 69.4253 109.019 74.3176 109.019 80.3276C109.019 86.3375 104.008 91.2299 97.8532 91.2299ZM97.8532 73.126C93.7826 73.126 90.4776 76.3604 90.4776 80.3276C90.4776 84.2947 93.7902 87.5291 97.8532 87.5291C101.916 87.5291 105.229 84.2947 105.229 80.3276C105.229 76.3604 101.916 73.126 97.8532 73.126Z" fill="#00A03B"/>
<path d="M163.945 81.3304C146.958 73.0051 135.436 89.4188 133.405 92.6009L118.017 100.068C116.122 97.6256 113.128 96.0346 109.755 96.0346H89.3562C87.4081 96.0346 85.5055 95.5092 83.8454 94.5175L76.6518 90.2254C76.576 90.181 76.5078 90.144 76.4244 90.107C74.6052 89.33 72.6798 88.9304 70.7014 88.9304H57.6255C51.8873 88.9304 46.4674 91.0764 42.3514 94.9763L26.6831 109.821L24.1437 107.275C20.7629 103.886 15.1839 103.812 11.7122 107.12L2.65383 115.741C0.971025 117.347 0.0310796 119.493 0.000758724 121.787C-0.0295621 124.081 0.849742 126.25 2.48707 127.885L33.9601 159.41C35.6808 161.134 37.97 162 40.2592 162C42.5485 162 44.6861 161.193 46.3916 159.565L55.45 150.944C58.7019 147.851 58.9672 142.878 56.2156 139.474H109.997C116.039 139.474 121.921 137.491 126.56 133.894C156.479 110.694 164.59 84.6012 164.923 83.4986C165.181 82.6402 164.772 81.7226 163.953 81.3156M52.7969 148.295L43.7386 156.916C41.7677 158.796 38.5992 158.751 36.6814 156.827L5.20836 125.302C4.28358 124.377 3.78328 123.149 3.79844 121.839C3.8136 120.529 4.3518 119.316 5.29932 118.413L14.3577 109.792C16.3285 107.919 19.4971 107.956 21.4148 109.88L52.8879 141.405C54.8057 143.329 54.7678 146.423 52.7969 148.295ZM124.187 131.001C120.215 134.079 115.174 135.774 109.99 135.774H52.5771L29.3362 112.485L44.9969 97.6478C48.4004 94.4213 52.8803 92.6453 57.6255 92.6453H70.7014C72.1113 92.6453 73.4833 92.9191 74.7871 93.4593L81.867 97.6848C84.1259 99.0316 86.7183 99.7421 89.3638 99.7421H109.762C113.386 99.7421 116.334 102.621 116.334 106.158V108.326C116.334 111.864 113.386 114.742 109.762 114.742H78.5848C77.5311 114.742 76.6821 115.571 76.6821 116.6C76.6821 117.628 77.5311 118.457 78.5848 118.457H109.762C115.478 118.457 120.132 113.913 120.132 108.334V106.165C120.132 105.203 119.988 104.271 119.723 103.39L135.596 95.6868C135.937 95.5166 136.225 95.2575 136.407 94.9319C136.808 94.2215 146.193 78.2075 160.739 83.987C158.548 89.848 149.134 111.664 124.187 131.008" fill="#00A03B"/>
</svg>
