<svg width="162" height="177" viewBox="0 0 162 177" fill="none" xmlns="http://www.w3.org/2000/svg">
<g clip-path="url(#clip0_2116_131)">
<path d="M162 62.8668C162 48.1353 154.935 32.3651 143.097 20.6654C129.611 7.33904 110.861 0 90.3018 0C45.9526 0 15.0516 29.3944 15.0516 55.7798C15.0516 68.3654 15.9798 73.1537 16.4171 75.4524C16.6268 76.5317 16.2509 77.9344 15.2894 79.6603C14.2077 81.6001 12.1364 84.4104 9.94232 87.3812C3.36014 96.3087 -0.874553 102.472 0.153434 106.565C1.7261 112.797 8.41569 113.194 12.4202 113.438C12.9189 113.469 13.5173 113.507 14.0006 113.553C13.9085 114.286 13.7551 115.233 13.6093 116.165C12.9035 120.563 12.4509 123.824 12.9803 125.749C13.6247 128.086 15.9261 128.972 18.0895 129.262C17.353 130.713 16.8467 132.592 17.2149 134.776C17.3761 135.768 17.9974 136.532 18.6495 137.342C19.3707 138.243 20.1225 139.175 20.2912 140.396C20.3986 141.137 20.4907 141.901 20.5828 142.672C21.3346 148.858 22.3702 157.327 31.0161 158.099C37.276 158.656 45.3925 158.481 56.2861 154.112C59.4008 158.962 62.6842 170.967 63.7582 175.541C63.9653 176.42 64.7555 177.015 65.6224 177.015C65.7682 177.015 65.9139 177 66.0597 176.962C67.0877 176.717 67.7321 175.694 67.4866 174.663C67.08 172.952 63.7659 159.214 59.8227 152.577C63.5971 150.836 67.686 148.606 72.1202 145.758C73.0101 145.185 73.2633 144.001 72.6879 143.115C72.1125 142.229 70.9234 141.977 70.0335 142.55C51.6679 154.372 39.7079 155.036 31.3459 154.296C26.1676 153.837 25.2624 149.423 24.3802 142.214C24.2804 141.42 24.1884 140.633 24.081 139.877C23.7664 137.617 22.4853 136.02 21.6338 134.967C21.3959 134.669 21.0737 134.272 20.9817 134.088C20.5214 131.064 23.0453 128.956 23.1451 128.88C23.8125 128.345 24.0503 127.437 23.7127 126.65C23.3829 125.863 22.5697 125.39 21.7105 125.497C19.3476 125.787 16.8314 125.321 16.6703 124.756C16.3174 123.481 16.9848 119.288 17.3837 116.783C17.6829 114.897 17.9207 113.408 17.9207 112.507C17.9207 109.963 15.1129 109.795 12.635 109.65C8.31596 109.391 4.67965 108.917 3.85879 105.664C3.19137 102.999 9.34394 94.6515 13.0186 89.6646C15.2817 86.5946 17.4221 83.6849 18.6265 81.539C20.5367 78.1177 20.7285 77.6442 20.1685 74.7574C19.7466 72.5733 18.8643 68.0293 18.8643 55.8027C18.8873 31.2043 48.2157 3.81844 90.3018 3.81844C115.342 3.81844 131.368 14.4566 140.397 23.3765C151.521 34.366 158.164 49.1357 158.164 62.8668C158.164 78.9959 151.137 98.3554 145.491 113.912C141.433 125.092 138.226 133.92 138.226 139.419C138.226 152.31 144.448 173.113 144.716 173.991C144.962 174.816 145.729 175.35 146.55 175.35C146.734 175.35 146.918 175.328 147.102 175.266C148.115 174.961 148.69 173.899 148.391 172.891C148.329 172.685 142.062 151.745 142.062 139.419C142.062 134.592 145.322 125.611 149.096 115.21C154.842 99.3711 162 79.6603 162 62.8668Z" fill="#00A03B"/>
<path d="M77.7356 58.6434C69.2432 63.5234 66.3204 74.3754 71.2225 82.8294C74.5136 88.5036 80.5051 91.6805 86.65 91.6805C89.6649 91.6805 92.7182 90.9168 95.5106 89.3131C104.003 84.4331 106.926 73.5811 102.024 65.1271C97.1216 56.6731 86.2204 53.7634 77.728 58.6434M93.6004 85.9987C86.9415 89.8248 78.3954 87.549 74.5443 80.9202C70.7008 74.2914 72.9869 65.7839 79.6535 61.9502C81.8476 60.6901 84.2411 60.0944 86.6039 60.0944C91.4293 60.0944 96.1243 62.584 98.7096 67.0363C102.553 73.6651 100.267 82.1726 93.6004 86.0063" fill="#00A03B"/>
<path d="M126.32 64.463H120.62C119.822 61.6298 118.679 58.9263 117.214 56.3985C115.748 53.8707 113.961 51.5262 111.897 49.426L114.751 44.5079C115.572 43.0874 115.787 41.4378 115.365 39.857C114.943 38.2762 113.923 36.955 112.496 36.1378L106.604 32.7471C103.666 31.0593 99.899 32.0674 98.2036 34.9923L95.3344 39.9334C89.5961 38.4747 83.6353 38.4747 77.92 39.9257L75.0585 34.9923C74.2377 33.5719 72.9105 32.5638 71.3225 32.1361C69.7345 31.7085 68.0774 31.9299 66.6505 32.7471L60.7588 36.1378C59.3319 36.955 58.3192 38.2762 57.8896 39.857C57.4677 41.4378 57.6825 43.0874 58.5034 44.5002L61.3648 49.4337C57.2452 53.6339 54.261 58.7736 52.6576 64.4554H46.927C43.5362 64.4554 40.7744 67.2047 40.7744 70.5802V77.3541C40.7744 80.7296 43.5362 83.4789 46.927 83.4789H52.6269C53.4248 86.3122 54.5679 89.0156 56.0331 91.5434C57.4984 94.0712 59.2858 96.4157 61.3495 98.5159L58.5034 103.434C56.8079 106.359 57.8206 110.116 60.7511 111.804L66.6429 115.195C67.5941 115.737 68.6451 116.02 69.7115 116.02C70.2485 116.02 70.7855 115.951 71.3148 115.806C72.9028 115.386 74.23 114.37 75.0509 112.95L77.9124 108.009C83.6507 109.467 89.6191 109.467 95.3268 108.016L98.1882 112.95C99.8837 115.875 103.658 116.883 106.596 115.195L112.488 111.804C113.907 110.987 114.928 109.666 115.357 108.085C115.779 106.504 115.564 104.855 114.743 103.434L111.882 98.5006C116.002 94.3003 118.986 89.1607 120.581 83.4789H126.312C129.703 83.4789 132.465 80.7296 132.465 77.3541V70.5802C132.465 68.9459 131.828 67.4032 130.662 66.2501C129.503 65.0893 127.954 64.4554 126.312 64.4554M128.637 77.3617C128.637 78.6371 127.601 79.6681 126.32 79.6681H119.101C118.211 79.6681 117.436 80.279 117.237 81.142C115.81 87.1675 112.68 92.5744 108.169 96.79C107.517 97.3933 107.379 98.3708 107.824 99.1345L111.429 105.351C111.736 105.885 111.821 106.504 111.659 107.1C111.498 107.695 111.115 108.192 110.578 108.497L104.686 111.888C104.149 112.194 103.528 112.278 102.929 112.117C102.331 111.957 101.832 111.575 101.525 111.04L97.9197 104.824C97.4748 104.053 96.5542 103.694 95.7027 103.953C89.7879 105.733 83.5126 105.733 77.5595 103.953C76.7079 103.701 75.7873 104.06 75.3424 104.832L71.7368 111.056C71.4299 111.59 70.9313 111.972 70.3329 112.132C69.7345 112.293 69.1131 112.209 68.5761 111.903L62.6843 108.513C61.5796 107.879 61.1961 106.466 61.8405 105.359L65.4308 99.165C65.8757 98.3937 65.7299 97.4238 65.0855 96.8205C62.8301 94.7051 60.9122 92.2995 59.3779 89.6571C57.8436 87.0147 56.7082 84.1509 56.0024 81.1496C55.803 80.2867 55.0281 79.6757 54.1382 79.6757H46.95C45.6689 79.6757 44.6332 78.6447 44.6332 77.3694V70.5955C44.6332 69.3201 45.6689 68.2891 46.95 68.2891H54.1689C55.0588 68.2891 55.8337 67.6782 56.0331 66.8152C57.46 60.7897 60.59 55.3828 65.1009 51.1672C65.753 50.5639 65.891 49.5864 65.4461 48.8227L61.8405 42.6063C61.5336 42.0717 61.4492 41.4531 61.6103 40.8574C61.7714 40.2618 62.155 39.7654 62.692 39.4599L68.5838 36.0691C69.1208 35.7636 69.7422 35.6796 70.3405 35.84C70.9389 36.0004 71.4376 36.3822 71.7444 36.9168L75.3501 43.1332C75.795 43.8969 76.7079 44.2635 77.5671 44.0038C83.4896 42.2244 89.7572 42.2244 95.7103 44.0038C96.5619 44.2558 97.4825 43.8969 97.9274 43.1332L101.533 36.9092C102.17 35.8095 103.597 35.4276 104.701 36.0615L110.593 39.4523C111.13 39.7577 111.514 40.2618 111.675 40.8498C111.836 41.4455 111.752 42.0641 111.445 42.5986L107.854 48.7922C107.409 49.5558 107.555 50.5334 108.2 51.1367C110.455 53.2445 112.373 55.6577 113.907 58.3001C115.442 60.9424 116.577 63.8063 117.283 66.8076C117.49 67.6705 118.257 68.2815 119.147 68.2815H126.335C126.957 68.2815 127.532 68.5182 127.977 68.9612C128.414 69.3965 128.652 69.9769 128.652 70.5878V77.3617H128.637Z" fill="#00A03B"/>
</g>
<defs>
<clipPath id="clip0_2116_131">
<rect width="162" height="177" fill="white"/>
</clipPath>
</defs>
</svg>
